<mxfile host="app.diagrams.net" modified="2022-01-22T06:23:25.327Z" agent="5.0 (Windows NT 10.0; Win64; x64) AppleWebKit/537.36 (KHTML, like Gecko) Chrome/97.0.4692.99 Safari/537.36" etag="UEtTx_HuvKA6BZq27_cM" version="16.4.5" type="github">
  <diagram id="I6N09XH4o6Jlzj2y5h3Z" name="Page-1">
    <mxGraphModel dx="1038" dy="575" grid="1" gridSize="10" guides="1" tooltips="1" connect="1" arrows="1" fold="1" page="1" pageScale="1" pageWidth="850" pageHeight="1100" math="0" shadow="0">
      <root>
        <mxCell id="0" />
        <mxCell id="1" parent="0" />
        <mxCell id="RIRNTHV1ml7E07MajAID-1" value="&lt;b&gt;Component&lt;/b&gt;&lt;br&gt;-----------------------------&lt;br&gt;&lt;div style=&quot;text-align: left&quot;&gt;&lt;span&gt;methodA()&lt;/span&gt;&lt;/div&gt;&lt;div style=&quot;text-align: left&quot;&gt;&lt;span&gt;methodB()&lt;/span&gt;&lt;/div&gt;&lt;div style=&quot;text-align: left&quot;&gt;&lt;span&gt;//other method&lt;/span&gt;&lt;/div&gt;" style="rounded=0;whiteSpace=wrap;html=1;" parent="1" vertex="1">
          <mxGeometry x="210" y="120" width="120" height="80" as="geometry" />
        </mxCell>
        <mxCell id="RIRNTHV1ml7E07MajAID-3" value="&lt;b&gt;ConcreteComponent&lt;/b&gt;&lt;br&gt;-----------------------------&lt;br&gt;&lt;div style=&quot;text-align: left&quot;&gt;&lt;span&gt;methodA()&lt;/span&gt;&lt;/div&gt;&lt;div style=&quot;text-align: left&quot;&gt;&lt;span&gt;methodB()&lt;/span&gt;&lt;/div&gt;&lt;div style=&quot;text-align: left&quot;&gt;&lt;span&gt;//other method&lt;/span&gt;&lt;/div&gt;" style="rounded=0;whiteSpace=wrap;html=1;" parent="1" vertex="1">
          <mxGeometry x="90" y="250" width="120" height="80" as="geometry" />
        </mxCell>
        <mxCell id="RIRNTHV1ml7E07MajAID-4" value="&lt;b&gt;Decorator&lt;/b&gt;&lt;br&gt;-----------------------------&lt;br&gt;&lt;div style=&quot;text-align: left&quot;&gt;&lt;span&gt;methodA()&lt;/span&gt;&lt;/div&gt;&lt;div style=&quot;text-align: left&quot;&gt;&lt;span&gt;methodB()&lt;/span&gt;&lt;/div&gt;&lt;div style=&quot;text-align: left&quot;&gt;&lt;span&gt;//other method&lt;/span&gt;&lt;/div&gt;" style="rounded=0;whiteSpace=wrap;html=1;" parent="1" vertex="1">
          <mxGeometry x="330" y="230" width="120" height="80" as="geometry" />
        </mxCell>
        <mxCell id="RIRNTHV1ml7E07MajAID-5" value="&lt;b&gt;ConcreteDecoratorA&lt;/b&gt;&lt;br&gt;-----------------------------------&lt;br&gt;Component wrappedObj&lt;br&gt;-----------------------------------&lt;br&gt;&lt;div style=&quot;text-align: left&quot;&gt;&lt;span&gt;methodA()&lt;/span&gt;&lt;/div&gt;&lt;div style=&quot;text-align: left&quot;&gt;&lt;span&gt;methodB()&lt;/span&gt;&lt;/div&gt;&lt;div style=&quot;text-align: left&quot;&gt;&lt;span&gt;newBehavior()&lt;/span&gt;&lt;/div&gt;&lt;div style=&quot;text-align: left&quot;&gt;&lt;span&gt;//other methods&lt;/span&gt;&lt;/div&gt;" style="rounded=0;whiteSpace=wrap;html=1;" parent="1" vertex="1">
          <mxGeometry x="330" y="390" width="145" height="130" as="geometry" />
        </mxCell>
        <mxCell id="RIRNTHV1ml7E07MajAID-6" value="&lt;b&gt;ConcreteDecoratorB&lt;/b&gt;&lt;br&gt;-----------------------------------&lt;br&gt;&lt;div style=&quot;text-align: left&quot;&gt;&lt;span&gt;Component wrappedObj&lt;/span&gt;&lt;/div&gt;&lt;div style=&quot;text-align: left&quot;&gt;&lt;span&gt;Object newState&lt;/span&gt;&lt;/div&gt;-----------------------------------&lt;br&gt;&lt;div style=&quot;text-align: left&quot;&gt;&lt;span&gt;methodA()&lt;/span&gt;&lt;/div&gt;&lt;div style=&quot;text-align: left&quot;&gt;&lt;span&gt;methodB()&lt;/span&gt;&lt;/div&gt;&lt;div style=&quot;text-align: left&quot;&gt;&lt;span&gt;newBehavior()&lt;/span&gt;&lt;/div&gt;&lt;div style=&quot;text-align: left&quot;&gt;&lt;span&gt;//other methods&lt;/span&gt;&lt;/div&gt;" style="rounded=0;whiteSpace=wrap;html=1;" parent="1" vertex="1">
          <mxGeometry x="532.5" y="390" width="145" height="130" as="geometry" />
        </mxCell>
        <mxCell id="RIRNTHV1ml7E07MajAID-7" value="" style="endArrow=block;html=1;rounded=0;entryX=0.5;entryY=1;entryDx=0;entryDy=0;exitX=0.75;exitY=0;exitDx=0;exitDy=0;endFill=0;" parent="1" source="RIRNTHV1ml7E07MajAID-3" target="RIRNTHV1ml7E07MajAID-1" edge="1">
          <mxGeometry width="50" height="50" relative="1" as="geometry">
            <mxPoint x="400" y="380" as="sourcePoint" />
            <mxPoint x="450" y="330" as="targetPoint" />
          </mxGeometry>
        </mxCell>
        <mxCell id="RIRNTHV1ml7E07MajAID-10" value="" style="endArrow=block;html=1;rounded=0;entryX=0.7;entryY=1.027;entryDx=0;entryDy=0;entryPerimeter=0;exitX=0.25;exitY=0;exitDx=0;exitDy=0;endFill=0;" parent="1" source="RIRNTHV1ml7E07MajAID-4" target="RIRNTHV1ml7E07MajAID-1" edge="1">
          <mxGeometry width="50" height="50" relative="1" as="geometry">
            <mxPoint x="400" y="380" as="sourcePoint" />
            <mxPoint x="450" y="330" as="targetPoint" />
          </mxGeometry>
        </mxCell>
        <mxCell id="RIRNTHV1ml7E07MajAID-11" value="" style="endArrow=block;html=1;rounded=0;entryX=0.6;entryY=0.988;entryDx=0;entryDy=0;entryPerimeter=0;exitX=0.25;exitY=0;exitDx=0;exitDy=0;endFill=0;" parent="1" source="RIRNTHV1ml7E07MajAID-5" target="RIRNTHV1ml7E07MajAID-4" edge="1">
          <mxGeometry width="50" height="50" relative="1" as="geometry">
            <mxPoint x="399" y="480" as="sourcePoint" />
            <mxPoint x="420" y="380" as="targetPoint" />
          </mxGeometry>
        </mxCell>
        <mxCell id="RIRNTHV1ml7E07MajAID-12" value="" style="endArrow=block;html=1;rounded=0;entryX=0.913;entryY=1.017;entryDx=0;entryDy=0;entryPerimeter=0;endFill=0;" parent="1" source="RIRNTHV1ml7E07MajAID-6" target="RIRNTHV1ml7E07MajAID-4" edge="1">
          <mxGeometry width="50" height="50" relative="1" as="geometry">
            <mxPoint x="400" y="380" as="sourcePoint" />
            <mxPoint x="450" y="330" as="targetPoint" />
          </mxGeometry>
        </mxCell>
        <mxCell id="RIRNTHV1ml7E07MajAID-13" value="Mỗi component có thể&lt;br&gt;được sử dụng riêng hoặc được&amp;nbsp;&lt;br&gt;bao bọc bởi decorator&amp;nbsp;" style="text;html=1;align=left;verticalAlign=middle;resizable=0;points=[];autosize=1;strokeColor=none;fillColor=none;" parent="1" vertex="1">
          <mxGeometry x="285" y="60" width="190" height="50" as="geometry" />
        </mxCell>
        <mxCell id="RIRNTHV1ml7E07MajAID-14" value="" style="curved=1;endArrow=classic;html=1;rounded=0;exitX=1;exitY=0.25;exitDx=0;exitDy=0;" parent="1" source="RIRNTHV1ml7E07MajAID-4" target="RIRNTHV1ml7E07MajAID-1" edge="1">
          <mxGeometry width="50" height="50" relative="1" as="geometry">
            <mxPoint x="490" y="230" as="sourcePoint" />
            <mxPoint x="540" y="180" as="targetPoint" />
            <Array as="points">
              <mxPoint x="540" y="230" />
              <mxPoint x="490" y="180" />
            </Array>
          </mxGeometry>
        </mxCell>
        <mxCell id="RIRNTHV1ml7E07MajAID-15" value="Mỗi decorator HAS-A&amp;nbsp; một component&lt;br&gt;có nghĩa là decorator có một instance&amp;nbsp;&lt;br&gt;tham chiếu đến component" style="text;html=1;align=center;verticalAlign=middle;resizable=0;points=[];autosize=1;strokeColor=none;fillColor=none;" parent="1" vertex="1">
          <mxGeometry x="457.5" y="140" width="220" height="50" as="geometry" />
        </mxCell>
        <mxCell id="RIRNTHV1ml7E07MajAID-16" value="Decorator sẽ implements cùng một iinterface&amp;nbsp;&lt;br&gt;hoặc lớp trừu tượng như component mà&amp;nbsp;&lt;br&gt;chúng sẽ trang trí (bao bọc)" style="text;html=1;align=center;verticalAlign=middle;resizable=0;points=[];autosize=1;strokeColor=none;fillColor=none;" parent="1" vertex="1">
          <mxGeometry x="470" y="260" width="260" height="50" as="geometry" />
        </mxCell>
        <mxCell id="RIRNTHV1ml7E07MajAID-17" value="Decorator có thể extend &lt;br&gt;state của component" style="text;html=1;align=center;verticalAlign=middle;resizable=0;points=[];autosize=1;strokeColor=none;fillColor=none;" parent="1" vertex="1">
          <mxGeometry x="715" y="420" width="140" height="30" as="geometry" />
        </mxCell>
        <mxCell id="RIRNTHV1ml7E07MajAID-18" value="&lt;div style=&quot;text-align: left&quot;&gt;&lt;span&gt;Các ConcreteDecorator&amp;nbsp;&lt;/span&gt;&lt;/div&gt;&lt;div style=&quot;text-align: left&quot;&gt;&lt;span&gt;có instance tham chiếu&lt;/span&gt;&lt;/div&gt;&lt;div style=&quot;text-align: left&quot;&gt;&lt;span&gt;đến component&amp;nbsp;&lt;/span&gt;&lt;/div&gt;&lt;div style=&quot;text-align: left&quot;&gt;&lt;span&gt;mà nó sẽ trang trí&lt;/span&gt;&lt;/div&gt;" style="text;html=1;align=center;verticalAlign=middle;resizable=0;points=[];autosize=1;strokeColor=none;fillColor=none;" parent="1" vertex="1">
          <mxGeometry x="140" y="440" width="150" height="60" as="geometry" />
        </mxCell>
        <mxCell id="RIRNTHV1ml7E07MajAID-19" value="ConcreteComponent&amp;nbsp;&lt;br&gt;là đối tượng mà ta sẽ tự thêm&lt;br&gt;hành vi vào nó" style="text;html=1;align=left;verticalAlign=middle;resizable=0;points=[];autosize=1;strokeColor=none;fillColor=none;" parent="1" vertex="1">
          <mxGeometry x="10" y="200" width="170" height="50" as="geometry" />
        </mxCell>
        <mxCell id="RIRNTHV1ml7E07MajAID-20" value="Decorator có thể thêm phương thức mới&amp;nbsp;" style="text;html=1;align=center;verticalAlign=middle;resizable=0;points=[];autosize=1;strokeColor=none;fillColor=none;" parent="1" vertex="1">
          <mxGeometry x="390" y="520" width="230" height="20" as="geometry" />
        </mxCell>
        <mxCell id="RIRNTHV1ml7E07MajAID-21" value="" style="curved=1;endArrow=classic;html=1;rounded=0;entryX=0;entryY=0.25;entryDx=0;entryDy=0;" parent="1" source="RIRNTHV1ml7E07MajAID-18" target="RIRNTHV1ml7E07MajAID-5" edge="1">
          <mxGeometry width="50" height="50" relative="1" as="geometry">
            <mxPoint x="400" y="380" as="sourcePoint" />
            <mxPoint x="450" y="330" as="targetPoint" />
            <Array as="points">
              <mxPoint x="240" y="380" />
              <mxPoint x="310" y="410" />
              <mxPoint x="220" y="410" />
            </Array>
          </mxGeometry>
        </mxCell>
        <mxCell id="RIRNTHV1ml7E07MajAID-22" value="" style="curved=1;endArrow=classic;html=1;rounded=0;entryX=1.017;entryY=0.308;entryDx=0;entryDy=0;entryPerimeter=0;exitX=0.226;exitY=1.06;exitDx=0;exitDy=0;exitPerimeter=0;" parent="1" source="RIRNTHV1ml7E07MajAID-17" target="RIRNTHV1ml7E07MajAID-6" edge="1">
          <mxGeometry width="50" height="50" relative="1" as="geometry">
            <mxPoint x="710" y="460" as="sourcePoint" />
            <mxPoint x="760" y="410" as="targetPoint" />
            <Array as="points">
              <mxPoint x="760" y="460" />
              <mxPoint x="690" y="485" />
            </Array>
          </mxGeometry>
        </mxCell>
        <mxCell id="RIRNTHV1ml7E07MajAID-23" value="component" style="text;html=1;align=center;verticalAlign=middle;resizable=0;points=[];autosize=1;strokeColor=none;fillColor=none;" parent="1" vertex="1">
          <mxGeometry x="335" y="140" width="70" height="20" as="geometry" />
        </mxCell>
      </root>
    </mxGraphModel>
  </diagram>
</mxfile>
